<?xml version="1.0" standalone="no"?>
<!DOCTYPE svg PUBLIC "-//W3C//DTD SVG 20010904//EN"
 "http://www.w3.org/TR/2001/REC-SVG-20010904/DTD/svg10.dtd">
<svg version="1.0" xmlns="http://www.w3.org/2000/svg"
 width="165.000000pt" height="165.000000pt" viewBox="0 0 165.000000 165.000000"
 preserveAspectRatio="xMidYMid meet">
<metadata>
Created by potrace 1.14, written by Peter Selinger 2001-2017
</metadata>
<g transform="translate(0.000000,165.000000) scale(0.100000,-0.100000)"
fill="#000000" stroke="none">
<path d="M369 1561 c-20 -11 -40 -16 -45 -12 -5 5 -20 11 -34 14 -23 6 -33 -7
-146 -185 l-122 -191 21 -18 c12 -9 25 -15 28 -13 4 2 48 69 99 149 51 80 93
145 93 145 1 0 0 -22 -1 -50 -7 -90 46 -165 137 -196 33 -11 42 -23 103 -145
l68 -134 0 -462 0 -463 30 0 30 0 1 233 c0 127 0 266 0 308 l0 76 46 -24 c141
-71 302 44 279 199 -9 59 -36 101 -87 135 -58 38 -145 40 -203 4 -23 -15 -36
-19 -31 -10 7 12 151 217 298 424 66 94 65 93 60 41 -8 -66 4 -112 40 -153 34
-38 97 -72 135 -73 15 0 29 -11 43 -35 23 -38 39 -44 60 -19 10 12 10 20 1 35
-17 27 -15 33 18 52 46 28 83 99 83 161 0 79 -41 143 -115 176 -55 25 -101 25
-157 -1 -25 -11 -47 -16 -50 -12 -11 15 -60 11 -74 -6 -8 -9 -39 -52 -69 -96
-92 -135 -279 -399 -292 -412 -9 -10 -23 11 -64 92 l-52 105 33 13 c59 25 117
112 117 177 0 34 -22 91 -47 120 -56 67 -161 90 -234 51z"/>
<path d="M135 1186 c-42 -18 -92 -73 -106 -114 -6 -19 -9 -59 -7 -88 5 -61 41
-115 98 -148 41 -24 132 -26 175 -4 108 57 141 199 69 294 -49 64 -155 92
-229 60z"/>
<path d="M1345 1114 c-144 -75 -152 -274 -13 -345 51 -26 130 -29 173 -6 34
18 77 61 95 97 18 34 17 129 -2 165 -47 89 -170 132 -253 89z"/>
</g>
</svg>
